<?xml version="1.0" encoding="UTF-8"?>
<svg id="Capa_1" data-name="Capa 1" xmlns="http://www.w3.org/2000/svg" xmlns:xlink="http://www.w3.org/1999/xlink" viewBox="0 0 1920 1080">
  <defs>
    <style>
      .cls-1 {
        letter-spacing: -.04em;
      }

      .cls-2 {
        fill: #c3d6e9;
      }

      .cls-2, .cls-3, .cls-4, .cls-5, .cls-6, .cls-7, .cls-8, .cls-9, .cls-10, .cls-11, .cls-12, .cls-13, .cls-14, .cls-15, .cls-16, .cls-17, .cls-18, .cls-19, .cls-20, .cls-21, .cls-22, .cls-23, .cls-24, .cls-25, .cls-26, .cls-27, .cls-28, .cls-29, .cls-30, .cls-31, .cls-32, .cls-33, .cls-34, .cls-35, .cls-36, .cls-37, .cls-38, .cls-39, .cls-40, .cls-41, .cls-42, .cls-43, .cls-44, .cls-45 {
        stroke-width: 0px;
      }

      .cls-3 {
        fill: #eaeaea;
      }

      .cls-4 {
        fill: #e7940b;
      }

      .cls-5, .cls-46 {
        fill: #66686b;
      }

      .cls-6 {
        fill: #8d8e90;
      }

      .cls-7 {
        fill: #e3eaf9;
      }

      .cls-8 {
        fill: #172b7c;
      }

      .cls-9 {
        fill: #7a7c7f;
      }

      .cls-46 {
        font-size: 14px;
      }

      .cls-46, .cls-47 {
        font-family: ArialRoundedMTBold, 'Arial Rounded MT Bold';
      }

      .cls-10 {
        fill: #fca403;
      }

      .cls-11 {
        fill: #86878a;
      }

      .cls-12 {
        fill: #152a7c;
      }

      .cls-13 {
        fill: #727476;
      }

      .cls-14 {
        fill: none;
      }

      .cls-15 {
        fill: #e6ebfb;
      }

      .cls-16 {
        fill: #112679;
      }

      .cls-17 {
        fill: #717376;
      }

      .cls-18 {
        fill: #75777a;
      }

      .cls-19 {
        fill: #13287a;
      }

      .cls-20 {
        fill: #e7e8e8;
      }

      .cls-48 {
        clip-path: url(#clippath-1);
      }

      .cls-21 {
        fill: #12277a;
      }

      .cls-22 {
        fill: #feb003;
      }

      .cls-49 {
        letter-spacing: -.01em;
      }

      .cls-50 {
        letter-spacing: -.01em;
      }

      .cls-23 {
        fill: #747679;
      }

      .cls-47 {
        fill: #102579;
        font-size: 31px;
      }

      .cls-24 {
        fill: #909294;
      }

      .cls-25 {
        fill: #ebedf3;
      }

      .cls-26 {
        fill: #808184;
      }

      .cls-27 {
        fill: #87888b;
      }

      .cls-28 {
        fill: #797b7e;
      }

      .cls-29 {
        fill: #e2e2e2;
      }

      .cls-51 {
        clip-path: url(#clippath);
      }

      .cls-30 {
        fill: #7d7f81;
      }

      .cls-31 {
        fill: #e4a20a;
      }

      .cls-32 {
        fill: #cfd9f4;
      }

      .cls-33 {
        fill: #8f9093;
      }

      .cls-52 {
        letter-spacing: -.05em;
      }

      .cls-34 {
        fill: #7a7b7e;
      }

      .cls-35 {
        fill: #909193;
      }

      .cls-36 {
        fill: #f09612;
      }

      .cls-37 {
        fill: #808284;
      }

      .cls-38 {
        fill: #707174;
      }

      .cls-39 {
        fill: #8a8b8d;
      }

      .cls-40 {
        fill: #8c8d90;
      }

      .cls-41 {
        fill: #6d6f72;
      }

      .cls-42 {
        fill: #0ca250;
      }

      .cls-43 {
        fill: #686a6d;
      }

      .cls-44 {
        fill: #c9d7ef;
      }

      .cls-45 {
        fill: #fefefe;
      }
    </style>
    <clipPath id="clippath">
      <rect class="cls-14" x="712" y="554" width="328.09" height="68.15"/>
    </clipPath>
    <clipPath id="clippath-1">
      <ellipse class="cls-14" cx="746.5" cy="588" rx="34.5" ry="33"/>
    </clipPath>
  </defs>
  <g class="cls-51">
    <text class="cls-47" transform="translate(783.49 595.32)"><tspan x="0" y="0">Qui</tspan><tspan class="cls-1" x="51.68" y="0">c</tspan><tspan x="68.92" y="0">k and H</tspan><tspan class="cls-49" x="182.26" y="0">a</tspan><tspan x="200.27" y="0">p</tspan><tspan class="cls-50" x="219.65" y="0">p</tspan><tspan x="238.62" y="0">y </tspan></text>
    <text/>
    <text class="cls-46" transform="translate(783.88 613.45)"><tspan x="0" y="0">Cleaning L</tspan><tspan class="cls-52" x="72.21" y="0">L</tspan><tspan x="79.97" y="0">C</tspan></text>
    <g class="cls-48">
      <g>
        <path class="cls-45" d="M960.81,572.65c0,17.89-.17,35.78.12,53.66.07,4.3-.61,5.48-5.33,5.46-76.84-.19-153.67-.13-230.51-.15-7.67,0-15.33-.11-23-.18v-22.25c0-20.07.1-40.14-.1-60.21-.03-3.41.95-4.01,4.13-3.95,11.04.2,22.08.08,33.12.08.3,2.57-1.91,2.65-3.42,3.12-17.83,5.52-28.41,17.52-30.37,35.69-1.89,17.5,6.52,30.57,21.2,39.93,4.9,2.63,9.95,4.77,15.68,4.69,8.91.34,17.56-.45,25.23-5.56,14.54-9.39,22.04-22.67,19.98-39.76-2.07-17.26-12.14-28.93-29.02-34.6-1.84-.62-4.72-.28-4.68-3.51,67.22,0,134.44.06,201.66-.13,4.54-.01,5.81.84,5.43,5.38-.5,6.08-.12,12.22-.12,18.34-4.32-.66-8.67.05-13-.32-1.86-.16-3.82.1-4.34,2.08-1.39,5.3-1.07,10.71-.28,16.07.17,1.15,1.1,1.85,2.36,1.83,1.28-.02,1.93-.89,2.35-1.94.4-1.02.42-2.11.52-3.19,1.03-10.54,1.36-10.82,12.39-10.6Z"/>
        <path class="cls-42" d="M725.94,624.93c-15.57-8.43-24.21-24.56-22.36-41.77,1.82-16.93,14.11-31.44,30.78-36.4,1.64-.49,3.58-.16,4.89-1.63h14.59c7.42,2.58,14.81,5.07,20.96,10.34,22.07,18.9,19.15,53.62-5.88,68.41-.92-.26-1.6-.91-1.63-1.79-.17-6.44-2.21-11.01-9.71-12-2.89-.38-2.96-3.94-3.08-6.51-.16-3.42.26-6.89-1.06-10.18-.23-.56-.38-1.14-.49-1.73.23-2.67-.65-4.97-2.47-6.94-.63-1.05-1.12-2.15-1.21-3.38.34-1.91.82-3.7,3.29-3.81,3.22,1.54,3.13,6.44,7.63,7.01-1.24-2.61-4.96-3.76-4.24-7.24,2.13-3.29,6.35-1.96,9.04-4,2.11-.74,3.37-2.07,3.13-4.43.18-2.54-.82-4.38-3.27-5.38-1.39-.69-2.83-1.25-4.32-1.68-5.4-1.06-10.87-.11-16.27-.54-4.34-.35-4.8,3.83-7.38,5.47-1.53.84-3.2,1.02-4.9,1.09-1.3.06-2.61-.06-3.92.06-2.13.18-3.94.84-4.02,3.33-.07,2.22,1.23,3.6,3.24,4.37,2.24.86,4.8.47,6.96,1.72,2.86,2.39,2.88,5.19.92,8.03-1.43,2.06-1.69,4.38-2.1,6.7-5.16,6.67-4.6,14.63-5.21,22.34-.28,3.57.98,7.43-1.91,10.54Z"/>
        <path class="cls-12" d="M960.81,572.65c-.9.6-1.95,1.85-2.69,1.7-9.59-1.98-8.1,4.49-8.02,10,.04,3.26.6,6.89-4.68,6.69-4.93-.18-4-3.71-4.07-6.62-.09-4.36-.04-8.73-.01-13.1,0-1.74-.06-3.56,1.64-4.72,2.01-1.37,15.86.29,17.84,2.12v3.93Z"/>
        <path class="cls-22" d="M754.29,592.07c4.52,2.34,1.52,6.41,1.77,9.47.35,4.33-.2,7.75,5.93,7.7,3.97-.03,6.17,2.91,6.52,6.86.23,2.59.28,5.19.42,7.78-8.09,6.1-17.38,7.04-27.1,6.19-4.55-.19-5.85-3.02-5.89-6.97-.08-6.53-.23-13.06.03-19.58.46-11.48,7.1-15.56,18.33-11.45Z"/>
        <path class="cls-21" d="M818.72,577.92c0,4.47.08,7.06-.02,9.65-.09,2.37-1.48,3.39-3.89,3.47-2.53.08-4.63-.51-4.67-3.32-.14-9.38-.13-18.77-.03-28.15.03-2.52,2.13-3.13,4.25-3.1,2.07.03,4.13.54,4.29,3.1.16,2.6.04,5.22.04,8.56,4.38-2.43,6.45-6.26,9.31-9.24,2.08-2.17,3.74-4.32,7.04-1.63,3.71,3.03,1.46,5.19-.73,7.5-2.82,2.97-7.5,5.77-7.83,8.99-.26,2.56,4.95,5.54,7.51,8.53,1.85,2.15,5.12,4.28,1.34,7.55-3.88,3.35-5.9.15-8.09-2.23-2.48-2.7-4.85-5.5-8.51-9.68Z"/>
        <path class="cls-16" d="M938.26,578.33c0,2.33-.12,4.08.02,5.81.46,5.69-1.25,8.72-7.47,5.86-1.24-.57-1.96-.28-2.97.15-5.5,2.32-9.45-.24-12.51-4.36-3.32-4.47-3.5-9.51-.34-14.04,3.03-4.33,7.05-7.33,12.91-4.7.2.09.39.25.6.27,3.02.24,6.55-3.45,8.91.07,2.24,3.34.39,7.66.85,10.94Z"/>
        <path class="cls-21" d="M864.84,581.6c3.6,3.47,6.42,3.2,9.44,1.96,2.61-1.07,4.2.11,5.14,2.49.96,2.45-.55,4.09-2.46,4.56-5.62,1.38-11.42,2.05-16.44-1.74-4.28-3.23-5.22-7.92-4.41-12.93.86-5.26,4.19-8.6,9.33-9.8,4.89-1.14,9.74-.92,13.26,3.38,2.03,2.48,3.03,5.4,1.82,8.53-1.23,3.18-4.11,3.56-7.1,3.54-2.41-.02-4.82,0-8.59,0Z"/>
        <path class="cls-19" d="M884.29,578.05c0-1.96.11-3.94-.03-5.89-.4-5.48,2.11-7.38,7.16-5.41,1.62.63,2.62.5,4.19.06,6.6-1.87,12.42,1.75,13.49,8.56.6,3.84.33,7.83.38,11.75.04,2.64-1.2,3.95-4.04,3.93-3.1-.02-4.42-1.37-4.36-4.37.06-2.83.08-5.68-.05-8.51-.11-2.41-1.84-3.48-4-3.48-2.15,0-3.91,1.02-4.03,3.45-.13,2.83-.13,5.67-.09,8.51.04,2.95-1.18,4.4-4.33,4.4-3.21,0-4.29-1.68-4.3-4.49-.01-2.84,0-5.67,0-8.51Z"/>
        <path class="cls-36" d="M754.29,592.07c-17.32-.3-16.4,2.89-16.37,17.33,0,4.76.26,9.55-.1,14.28-.26,3.38,1.1,5.22,4,6.39-5.87.01-11.19-1.63-15.89-5.15.36-8.03.87-16.05,1.01-24.08.07-4.37,1.66-7.5,5.67-9.37,1.25-2.17,3.44-2.15,5.55-2.31,5.31.25,10.92-1.66,15.78,2.05.18.26.29.55.34.87Z"/>
        <path class="cls-8" d="M848.7,591.01c-4.59.14-7.64-1.73-7.81-6.25-.32-8.91-.31-17.83-.32-26.75,0-2.67,1.67-3.79,4.34-3.73,2.63.06,4.2,1.15,4.22,3.87.04,5.44-.16,10.9.09,16.33.16,3.46-1.9,7.73,3.62,9.68,1.5.53.99,3.67.31,5.48-.81,2.17-3.01,1.12-4.45,1.37Z"/>
        <path class="cls-17" d="M856.03,616.84c-2.5-1.71.37-5.11-2.2-6.83-3.33,1.4-.62,4.9-2.72,7.12-2.41-2.54-2.18-5.92-.79-7.95,1.2-1.75,4.51-2.23,6.63.32-.91,2.38.49,5.03-.92,7.35Z"/>
        <path class="cls-18" d="M829.48,615.84c-2.07-2.15-2.75-4.81.35-5.98,2.25-.84,6.5-2.22,6.15,3.22-.91,1.61-2.73,1.55-4.16,2.21-.75.33-1.52.53-2.34.54Z"/>
        <path class="cls-9" d="M824.09,616.84c-1.57-4.12-1.6-8.25.04-12.4,1.8,4.06,1.67,8.2-.04,12.4Z"/>
        <path class="cls-26" d="M881.34,608.1c1.51.28,3.86-.78,3.81,2.09-.05,2.98,1.38,6.83-.68,8.71-2.26,2.06-1.92-2.34-3.53-3.01-.08-2.61-.48-5.24.4-7.8Z"/>
        <path class="cls-34" d="M842.75,613.52c4.22-3.79-1.26-2.99-2.43-4.68,3.18-1.37,5.79-1.49,6.22,2.44.27,2.47,1.86,6.7-3.79,5.71-1.06-1.15-1.14-2.31,0-3.47Z"/>
        <path class="cls-41" d="M906.56,615.82c-2.32-2.71-1.95-5.78.97-7,3.23-1.35,4.83,1.48,5.5,4.42-1.07,1.36-2.8,1.57-4.2,2.35-.73.36-1.45.77-2.27.23Z"/>
        <path class="cls-41" d="M951.67,615.82c-2.32-2.71-1.95-5.78.97-7,3.23-1.35,4.83,1.48,5.5,4.42-1.07,1.36-2.8,1.57-4.2,2.35-.73.36-1.45.77-2.27.23Z"/>
        <path class="cls-5" d="M862.17,608.47c1.81,2.7,1.6,5.46.64,9.16-2.67-3.4-1.39-6.35-.64-9.16Z"/>
        <path class="cls-9" d="M935.53,616.87c-1.49-2.84-1.63-5.68-.34-9.35,2.62,3.52,1.95,6.42.34,9.35Z"/>
        <path class="cls-43" d="M871.86,610.81c-6.32-1.72-1.52,4.89-5.03,5.67-.47-2.61-1.3-5.61.57-7.91.61-.75,4.1-1.77,5.65.83-.3.56-.37,1.29-1.19,1.41Z"/>
        <path class="cls-20" d="M881.34,608.1c.68,2.64,3.12,5.37-.4,7.8,0,0-.56.04-.56.04l-.56-.06c-1.62-2.32-1.53-4.61.12-6.87.47-.3.93-.6,1.4-.91Z"/>
        <path class="cls-5" d="M871.86,610.81c.4-.47.8-.94,1.19-1.41,1.62,2.39,1.47,4.86.29,7.93-2.45-2.03-1.29-4.45-1.48-6.52Z"/>
        <path class="cls-33" d="M810.97,607.02c1.91-2.66,3.94-2.14,6.53-.4-1.81,2.09-3.9.76-5.52,1.37-.74.09-1.09-.22-1.01-.97Z"/>
        <path class="cls-38" d="M917.94,616.66c-1.35-2.78-1.58-5.49-.4-8.13.08-.17,1.55-.1,1.67.17,1.32,2.9-1.27,5.2-1.27,7.96Z"/>
        <path class="cls-13" d="M810.97,607.02c.34.32.67.64,1.01.97-.72,2.27-.78,4.54.13,6.78.3,1.03.17,1.63-1.1,1.07-2.73-2.93-2.85-5.86-.03-8.81Z"/>
        <path class="cls-37" d="M879.94,609.01c-.04,2.29-.08,4.58-.12,6.87-4.81-2.37-4.1-4.65.12-6.87Z"/>
        <path class="cls-23" d="M899.76,613.37c-1.86-2.07-7.93-.93-5.12-6.56,1.31-.24,1.78.24,1.33,1.51,1.3,1.14,2.6,2.29,3.9,3.43.44.57.4,1.11-.12,1.61Z"/>
        <path class="cls-37" d="M842.75,613.52c0,1.16,0,2.31,0,3.47-2.28.48-3.97-.32-3.61-2.72.38-2.57,2.11-1.82,3.61-.75Z"/>
        <path class="cls-24" d="M811.01,615.83c.37-.36.74-.71,1.11-1.07,1.58.4,3.42-.68,5.17,1.14-2.24,2.05-4.21,2.19-6.28-.08Z"/>
        <path class="cls-30" d="M928.69,613.18c.63-1.82.03-4.35,3.23-5.05.11,2.06-.12,3.77-1.61,5.16-.57.43-1.11.39-1.62-.11Z"/>
        <path class="cls-27" d="M895.98,608.32c-.45-.5-.89-1.01-1.34-1.51,1.87-2.26,3.95-1.6,6.41-.85-1.18,2.81-3.99.55-5.08,2.36Z"/>
        <path class="cls-40" d="M942.27,610.68l-.06,3.93c-.23.49-.61.82-1.15.94-2.37-2-2.14-4.03-.08-6.08.6.23,1.03.63,1.28,1.21Z"/>
        <path class="cls-6" d="M928.69,613.18c.54.04,1.08.07,1.62.11.01,1.51.32,3.35-1.65,3.76-1.68.35-2.13-1.06-2.2-2.48.38-.66.48-1.54,1.45-1.72.25.13.52.24.79.33Z"/>
        <path class="cls-11" d="M941.06,615.55c.38-.31.77-.63,1.15-.94,1.51,1.32,3.22-.22,6.21.25-3.17,2.46-5,4.05-7.37.69Z"/>
        <path class="cls-39" d="M927.9,612.85c-.48.57-.97,1.15-1.45,1.72-.23-1.64-2.85-3.63-.41-4.74,1.83-.83,1.46,1.81,1.86,3.02Z"/>
        <path class="cls-28" d="M899.76,613.37c.04-.54.08-1.08.12-1.61,1.31.21,2.67.33,2.59,2.18-.07,1.78-.95,2.79-2.73,3.04-.64-.52-.67-1.06-.09-1.64.03-.65.07-1.31.1-1.96Z"/>
        <path class="cls-26" d="M829.48,615.84c.28-.42.57-.84.85-1.26,1.8.79,3.84-1.88,5.53.38-1.76,2.9-3.83,3.58-6.39.88Z"/>
        <path class="cls-35" d="M906.56,615.82c.43-.45.86-.9,1.29-1.35,1.82.17,4.19-1.15,4.97,1.8-2.21,1.5-4.34,1.95-6.26-.45Z"/>
        <path class="cls-35" d="M951.67,615.82l1.29-1.35c1.82.17,4.19-1.15,4.97,1.8-2.21,1.5-4.34,1.95-6.26-.45Z"/>
        <path class="cls-5" d="M856.03,616.84c.38-2.44-.78-5.07.92-7.35.23,2.52,2.08,5.23-.92,7.35Z"/>
        <path class="cls-29" d="M835.87,614.96c-1.82-.54-3.83,1.75-5.53-.38,1.46-2.04,3.79-.88,5.65-1.49-.04.62-.08,1.25-.11,1.87Z"/>
        <path class="cls-3" d="M912.83,616.27c-1.66-.6-3.31-1.2-4.97-1.8,1.3-2.15,3.48-.68,5.17-1.23-.07,1.01-.14,2.02-.2,3.03Z"/>
        <path class="cls-3" d="M957.93,616.27c-1.66-.6-3.31-1.2-4.97-1.8,1.3-2.15,3.48-.68,5.17-1.23-.07,1.01-.14,2.02-.2,3.03Z"/>
        <path class="cls-5" d="M899.65,615.33c.03.55.06,1.1.09,1.64-2.37.6-4.39.04-6.25-1.67,2.23-1.72,4.14,1.26,6.16.03Z"/>
        <path class="cls-5" d="M942.27,610.68c-.43-.4-.86-.81-1.28-1.21.74-1.21,2.25-2.05,3.03-1.07,1.26,1.58-1.37,1.31-1.75,2.28Z"/>
        <path class="cls-15" d="M731.29,566.31c1.6-.16,3.2-.32,4.8-.48,7.32-8.41,16.95-5.42,26.02-5.15,1.75-.17,2.59,1.22,3.71,2.12,1.84,2.15,1.75,4.72,1.64,7.3-.04,1.53-.69,2.83-1.6,4.03-1.93,4.26-6.77,1.45-9.47,3.81-1.26,1.21-2.62.75-3.99.24-1.78.49-1.56,2.33-2.4,3.46-2.93,4.04-7.78,4.27-11.55.46-1.63-1.65-2.4-4.16-5-4.83-6.17-2.61-6.81-5.84-2.17-10.94Z"/>
        <path class="cls-7" d="M753.95,591.21c-5.34-.1-10.68-.2-16.02-.31-2.12-4.49.14-6.62,4.34-6.96,2.95-.24,6.05-.77,8.98.48,3.56,1.23,4.48,3.49,2.7,6.79Z"/>
        <path class="cls-32" d="M751.25,584.42c-3.22.12-6.53-.18-9.62.49-2.78.61-3.92,3.1-3.69,5.99-1.77.19-3.54.38-5.31.57-2.04-2.1-1.97-4.63.2-6.07,3.49-2.32,2.87-4.66,1.1-7.45-.45-.3-.6-.6-.45-.9.15-.29.31-.44.46-.44,2.19-.03,3.69,1.24,4.7,2.9,3.04,5.01,6.98,4.64,11.39,2.11.41.93.82,1.86,1.23,2.79Z"/>
        <path class="cls-44" d="M733.93,576.62c0,.45,0,.89-.01,1.34-1.95-.17-3.9-.36-5.86-.51-4.15-.3-6.32-2.15-6.13-6.6.2-4.72,3.22-4.97,6.76-4.77.87.05,1.73.15,2.6.23-1.49,4.03-3.77,8.25,2.64,10.31Z"/>
        <path class="cls-31" d="M752.41,578.18c1.33-.08,2.66-.16,3.99-.24,1.28,2.04,2.51,4.16,5.03,4.92,1.52.46,3.32.8,2.3,2.91-.82,1.67-2.58,1.4-4.11.99-4.43-1.18-5.77-4.93-7.21-8.58Z"/>
        <path class="cls-2" d="M762.12,560.68c-2.61.1-5.22.21-7.84.29-5.39.17-11.28-1.48-15.1,4.34-.38.59-2.03.37-3.09.52,2.06-5.57,6.15-6.86,11.75-5.98,4.7.74,9.58-.73,14.28.83Z"/>
        <path class="cls-10" d="M766,570.03c-.06-2.41-.12-4.82-.17-7.23,4.35-.03,4.41,2.8,4.05,5.92-1.09,1.02-1.9,2.87-3.88,1.31Z"/>
        <path class="cls-4" d="M766,570.03c1.29-.44,2.59-.87,3.88-1.31.68,3.26.18,5.67-4.01,5.4.04-1.36.09-2.73.13-4.09Z"/>
        <path class="cls-25" d="M925.38,582.49c-2.58-.43-4.31-1.8-4.01-4.28.28-2.32,1.95-3.87,4.55-3.58,2.21.25,3.54,1.59,3.47,3.89-.08,2.57-1.58,3.83-4.01,3.97Z"/>
        <path class="cls-45" d="M865.17,576.5c1.58-2.91,3.37-3.67,5.75-2.77.85.32,1.61,1.28.93,2.03-1.71,1.91-3.97.95-6.68.74Z"/>
      </g>
    </g>
  </g>
</svg>